<?xml version="1.0" encoding="UTF-8" standalone="no"?>
<!-- Generator: Adobe Adobe Illustrator 24.2.0, SVG Export Plug-In . SVG Version: 6.00 Build 0)  -->

<svg
   version="1.1"
   x="0px"
   y="0px"
   width="1080px"
   height="1080px"
   viewBox="0 0 1080 1080"
   style="enable-background:new 0 0 1080 1080;"
   xml:space="preserve"
   id="svg75"
   sodipodi:docname="kgraph-logo-2.svg"
   inkscape:version="1.1.1 (3bf5ae0d25, 2021-09-20, custom)"
   xmlns:inkscape="http://www.inkscape.org/namespaces/inkscape"
   xmlns:sodipodi="http://sodipodi.sourceforge.net/DTD/sodipodi-0.dtd"
   xmlns="http://www.w3.org/2000/svg"
   xmlns:svg="http://www.w3.org/2000/svg"><defs
   id="defs79" /><sodipodi:namedview
   id="namedview77"
   pagecolor="#ffffff"
   bordercolor="#666666"
   borderopacity="1.0"
   inkscape:pageshadow="2"
   inkscape:pageopacity="0.0"
   inkscape:pagecheckerboard="0"
   showgrid="false"
   inkscape:zoom="0.34100506"
   inkscape:cx="-174.48422"
   inkscape:cy="715.53191"
   inkscape:window-width="1440"
   inkscape:window-height="741"
   inkscape:window-x="0"
   inkscape:window-y="32"
   inkscape:window-maximized="1"
   inkscape:current-layer="svg75" />
<style
   type="text/css"
   id="style2">
	.st0{display:none;}
	.st1{display:inline;}
	.st2{fill:#FFFFFF;stroke:#000000;stroke-miterlimit:10;}
	.st3{display:inline;fill:#FFFFFF;stroke:#000000;stroke-miterlimit:10;}
	.st4{display:inline;fill:#00FF00;stroke:#00FF00;stroke-miterlimit:10;}
	.st5{fill:#FEF6E4;stroke:#001858;stroke-width:6;stroke-miterlimit:10;}
	.st6{fill:#8BD3DD;stroke:#001858;stroke-width:6;stroke-miterlimit:10;}
	.st7{fill:#F582AE;stroke:#001858;stroke-width:6;stroke-miterlimit:10;}
	.st8{fill:#001858;stroke:#001858;stroke-width:6;stroke-miterlimit:10;}
	.st9{fill:#FCB92F;}
	.st10{fill:#FC3250;}
	.st11{fill:#7943FA;}
	.st12{fill:#1FC4E9;}
	.st13{fill:#0F1632;}
	.st14{fill:#17211A;}
	.st15{fill:#200D02;}
	.st16{fill:#010102;}
	.st17{fill:#33A9C3;}
	.st18{fill:#3EAECC;}
	.st19{fill:#FFFFFF;}
	.st20{fill:#764BCD;}
	.st21{fill:#CA314A;}
	.st22{fill:#F4C44A;}
	.st23{fill:#B49646;}
	.st24{fill:#B08D34;}
	.st25{fill:#6C1724;}
	.st26{fill:#FFFFFF;stroke:#000000;stroke-width:10;stroke-miterlimit:10;}
	.st27{fill:#FC3250;stroke:#000000;stroke-width:10;stroke-miterlimit:10;}
	.st28{fill:#1FC4E9;stroke:#000000;stroke-width:10;stroke-miterlimit:10;}
	.st29{fill:#FFFFFF;stroke:#000000;stroke-width:11;stroke-miterlimit:10;}
	.st30{fill:#FCB92F;stroke:#000000;stroke-width:11;stroke-miterlimit:10;}
</style>
<g
   id="Layer_2"
   class="st0">
	<g
   id="Layer_3">
	</g>
</g>
<g
   id="Layer_4"
   class="st0">
</g>
<g
   id="Layer_1">
</g>
<g
   id="Layer_5"
   class="st0">
</g>
<g
   id="Layer_7"
   class="st0">
	<g
   class="st1"
   id="g61">
		<g
   id="g59">
			<path
   class="st9"
   d="M598.89,946.81c-42.74,0-85.48,0-128.31-0.09c-0.09-35.01-0.09-69.94-0.1-104.86c0-1.16-0.16-2.33-0.16-3.49     c0-1.38,0.1-2.77,0.17-4.15c0.02-0.48,0.06-0.97,0.15-1.44c0.16-0.81-0.51-2.13-1.34-2.51c-0.08-0.14-0.11-0.25-0.08-0.39     c0.14-0.29,0.3-0.56,0.29-0.81c-0.1-1.6-0.81-3.03-1.95-4c-1.98-1.66-3.6-3.73-5.95-4.97c-1.1-0.58-1.87-1.67-2.95-2.35     c-0.6-0.38-0.93-1.19-1.54-1.56c-1.05-0.65-2.23-1.1-3.34-1.65c0,0,0,0.01,0-0.06c-0.18-0.38-0.3-0.77-0.56-0.98     c-1.12-0.89-2.3-1.71-3.43-2.59c-0.23-0.18-0.37-0.47-0.46-0.72c0.4-0.01,0.72-0.02,1.04-0.02c40.81,0,81.62,0,122.42,0     c0.98,0,1.96,0.02,2.96,0.09c0.38,0.41,0.79,0.72,1.08,1.12c0.51,0.68,1.16,0.93,2.01,0.91c0.13,0.07,0.22,0.1,0.32,0.2     c0.13,0.25,0.21,0.47,0.37,0.6c2.59,2.13,5.19,4.26,7.8,6.37c1.6,1.29,3.23,2.54,4.84,3.81c0.95,0.75,1.92,1.48,2.84,2.27     c0.6,0.5,1.06,1.18,1.7,1.61c1.14,0.77,1.75,1.93,1.95,3.14c0.28,1.62,0.24,3.3,0.24,4.96     C598.89,872.45,598.89,909.63,598.89,946.81z"
   id="path9" />
			<path
   class="st10"
   d="M466.69,946.81c-42.11,0-84.22,0-126.41-0.09c-0.09-45.55-0.09-91.01-0.09-136.53c0.46,0,0.81,0,1.15,0     c33.68,0,67.36,0,101.04,0c0.32,0,0.63,0.02,0.96,0.09c1,0.9,1.97,1.75,2.96,2.58c1.69,1.41,3.37,2.83,5.1,4.19     c1.7,1.33,3.48,2.55,5.19,3.86c2.37,1.82,4.75,3.63,7.06,5.53c1.15,0.94,2.05,2.12,2.15,3.72c0.02,0.33,0.22,0.65,0.32,0.98     c0.19,0.61,0.54,1.23,0.54,1.85C466.7,870.93,466.69,908.87,466.69,946.81z"
   id="path11" />
			<path
   class="st11"
   d="M793.77,828.6c0,39.39,0,78.78,0,118.22c-33.75,0-67.5,0-101.34-0.09c-0.09-2.87-0.09-5.65-0.09-8.44     c0-35.85,0-71.69-0.02-107.54c0-0.79-0.09-1.7-0.49-2.35c-0.79-1.3-1.78-2.49-2.75-3.67c-0.67-0.82-1.31-1.74-2.16-2.32     c-1.98-1.36-3.96-2.68-5.58-4.48c-0.16-0.18-0.44-0.23-0.64-0.37c-1.47-1.07-2.95-2.13-4.4-3.22c-0.79-0.59-1.55-1.23-2.3-1.87     c-0.87-0.73-1.71-1.49-2.48-2.25c33.04-0.02,66-0.02,98.95-0.02c0.22,0,0.44,0.04,0.71,0.06c0.69,0.5,1.33,1.01,1.98,1.5     c2.26,1.73,4.53,3.45,6.77,5.19c1.51,1.17,2.99,2.37,4.49,3.57c2.01,1.6,4.05,3.16,6.01,4.82     C791.61,826.34,792.66,827.5,793.77,828.6z"
   id="path13" />
			<path
   class="st12"
   d="M688.92,946.81c-28.62,0-57.24,0-85.96-0.09c-0.09-37.86-0.09-75.63-0.09-113.4c0-0.25,0.02-0.5,0.04-0.76     c0.11-1.33,0.1-2.62-0.82-3.73c-0.14-0.17-0.28-0.38-0.3-0.58c-0.16-1.61-1.32-2.67-2.26-3.77c-0.97-1.14-2.25-2.01-3.38-3.01     c-0.43-0.38-0.79-0.86-1.25-1.2c-1.62-1.2-3.31-2.32-4.91-3.54c-1.76-1.34-3.46-2.75-5.19-4.13c-0.05-0.04-0.11-0.05-0.16-0.09     c-0.76-0.56-1.53-1.11-2.26-1.69c-0.14-0.11-0.15-0.39-0.14-0.61c27.56-0.02,55.02-0.02,82.49-0.02c0.22,0,0.44,0.02,0.67,0.1     c0.87,0.72,1.69,1.43,2.59,2.02c2.73,1.79,5.31,3.76,7.62,6.08c0.46,0.46,0.97,0.89,1.49,1.28c1.07,0.79,2.12,1.62,3.26,2.3     c1.6,0.95,2.83,2.37,4.59,3.18c1.91,0.87,2.76,2.94,3.75,4.73c0.21,0.38,0.28,0.95,0.19,1.38c-0.23,1.16,0.04,2.3,0.03,3.45     c-0.01,1.26,0,2.53,0,3.79C688.92,874.61,688.92,910.71,688.92,946.81z"
   id="path15" />
			<path
   class="st13"
   d="M691.77,946.81c-0.64,0-1.28,0-1.98-0.09c-0.06-0.4-0.05-0.72-0.05-1.03c0-35.76,0-71.52,0-107.28     c0-1.9,0.05-3.8-0.02-5.69c-0.09-2.58-0.88-4.92-2.86-6.66c-2.01-1.76-4.13-3.39-6.24-5.04c-2.72-2.14-5.47-4.24-8.2-6.37     c-1.89-1.47-3.77-2.95-5.57-4.44c1.07,0,2.07,0,3.1,0.04c3.49,2.74,6.94,5.44,10.39,8.13c2.04,1.58,4.15,3.07,6.12,4.73     c1.71,1.44,3.36,2.98,4.26,5.11c0.85,2.02,1.01,4.15,1.01,6.31c-0.01,36.99-0.01,73.97-0.01,110.96     C691.73,945.93,691.76,946.37,691.77,946.81z"
   id="path17" />
			<path
   class="st14"
   d="M601.93,946.81c-0.58,0-1.15,0-1.81-0.09c-0.08-14-0.08-27.91-0.08-41.82c0-23.65,0.01-47.3-0.01-70.95     c0-1.38,0.05-2.85-0.36-4.13c-0.76-2.35-2.29-4.23-4.54-5.44c-0.02,0.01,0.01-0.02,0-0.08c-0.82-0.65-1.63-1.24-2.45-1.83     c0-0.01-0.02-0.01-0.03-0.07c-1.11-0.94-2.2-1.84-3.31-2.71c-2.93-2.3-5.88-4.59-8.81-6.9c-1.05-0.83-2.07-1.72-3.01-2.59     c0.9,0,1.72,0,2.59,0.05c0.96,0.76,1.88,1.48,2.79,2.19c1.44,1.12,2.88,2.24,4.32,3.36c2.54,1.97,5.08,3.93,7.6,5.93     c1.97,1.56,4.03,3.04,5.44,5.2c1.41,2.16,1.63,4.63,1.63,7.08c0.04,28.21,0.02,56.42,0.03,84.63     C601.92,928.03,601.92,937.42,601.93,946.81z"
   id="path19" />
			<path
   class="st15"
   d="M469.16,946.81c-0.45,0-0.9,0-1.44-0.09c-0.09-37.84-0.09-75.59-0.1-113.35c0-1.22-0.03-2.4-0.47-3.62     c-0.65-1.81-1.61-3.3-3.1-4.49c-2-1.6-3.96-3.26-5.98-4.84c-0.74-0.58-1.62-0.99-2.44-1.47c0,0-0.01-0.01,0-0.08     c-1.32-1.19-2.62-2.36-3.97-3.44c-1.85-1.48-3.75-2.89-5.61-4.36c-0.28-0.22-0.43-0.58-0.56-0.89c0.61-0.01,1.13,0,1.7,0.04     c1.46,1.14,2.86,2.25,4.27,3.34c1.75,1.37,3.51,2.73,5.27,4.09c2.31,1.79,4.57,3.64,6.93,5.34c1.84,1.33,3.37,2.96,4.33,4.95     c0.97,1.99,1.19,4.22,1.19,6.44c0,37.12,0,74.24,0,111.36C469.19,946.12,469.17,946.47,469.16,946.81z"
   id="path21" />
			<path
   class="st16"
   d="M793.77,810.19c0,5.57,0,11.14-0.07,16.79c-0.49-0.36-0.89-0.83-1.36-1.22c-1.97-1.68-3.95-3.34-5.95-4.99     c-1.21-0.99-2.44-1.95-3.7-2.89c-3.14-2.36-6.29-4.69-9.43-7.05c-0.18-0.14-0.27-0.4-0.31-0.62     C779.96,810.19,786.86,810.19,793.77,810.19z"
   id="path23" />
			<path
   class="st17"
   d="M602.01,946.81c-0.08-9.39-0.09-18.79-0.09-28.18c0-28.21,0.01-56.42-0.03-84.63     c0-2.45-0.22-4.91-1.63-7.08c-1.41-2.16-3.46-3.64-5.44-5.2c-2.52-1.99-5.07-3.95-7.6-5.93c-1.44-1.12-2.88-2.24-4.32-3.36     c-0.92-0.71-1.83-1.43-2.71-2.21c0.68-0.04,1.31-0.03,1.95-0.01c0.07,0.2,0.08,0.48,0.23,0.59c0.74,0.59,1.5,1.13,2.26,1.69     c0.05,0.04,0.12,0.05,0.16,0.09c1.73,1.38,3.43,2.79,5.19,4.13c1.61,1.22,3.29,2.34,4.91,3.54c0.46,0.34,0.81,0.82,1.25,1.2     c1.13,1,2.42,1.87,3.38,3.01c0.94,1.1,2.1,2.16,2.26,3.77c0.02,0.2,0.16,0.42,0.3,0.58c0.92,1.11,0.92,2.4,0.82,3.73     c-0.02,0.25-0.04,0.5-0.04,0.76c0,37.77,0,75.54,0.01,113.4C602.61,946.81,602.35,946.81,602.01,946.81z"
   id="path25" />
			<path
   class="st18"
   d="M666.77,810.23c1.88,1.48,3.77,2.96,5.66,4.43c2.73,2.13,5.48,4.23,8.2,6.37c2.1,1.65,4.22,3.28,6.24,5.04     c1.99,1.73,2.78,4.08,2.86,6.66c0.06,1.9,0.02,3.79,0.02,5.69c0,35.76,0,71.52,0,107.28c0,0.32-0.01,0.63-0.04,1.03     c-0.23,0.09-0.43,0.09-0.71,0.09c-0.07-36.1-0.07-72.21-0.07-108.31c0-1.26-0.01-2.53,0-3.79c0.01-1.15-0.26-2.28-0.03-3.45     c0.09-0.44,0.02-1-0.19-1.38c-0.99-1.78-1.84-3.86-3.75-4.73c-1.77-0.81-2.99-2.23-4.59-3.18c-1.14-0.68-2.19-1.51-3.26-2.3     c-0.53-0.39-1.03-0.82-1.49-1.28c-2.31-2.32-4.89-4.29-7.62-6.08c-0.9-0.59-1.72-1.3-2.5-2.04     C665.96,810.21,666.36,810.22,666.77,810.23z"
   id="path27" />
			<path
   class="st19"
   d="M666.85,810.22c-0.49,0-0.89-0.01-1.38-0.01c-0.3,0-0.52-0.02-0.75-0.02c-27.46,0-54.93,0-82.49,0.02     c-0.73,0-1.37-0.02-2.09-0.02c-0.9,0.01-1.72,0.01-2.7-0.01c-0.42,0.01-0.68,0.02-1.02,0.02c-0.29-0.01-0.5,0-0.72,0.01     c-0.98-0.01-1.96-0.03-2.94-0.03c-40.81,0-81.62,0-122.42,0c-0.32,0-0.63,0-1.12,0c-0.5,0.01-0.82,0.02-1.23,0.02     c-0.34-0.01-0.6-0.01-0.86,0c-0.52-0.01-1.04-0.01-1.73-0.02c-0.54,0.01-0.92,0.03-1.37,0.03c-0.29-0.01-0.5,0-0.71,0.02     c-0.32-0.01-0.63-0.03-0.95-0.03c-33.68,0-67.36,0-101.04,0c-0.34,0-0.69,0-1.15,0c0,45.52,0,90.98,0,136.53     c-0.06,0.06-0.18,0.03-0.18-0.01c-0.02-0.25-0.01-0.51-0.01-0.76c0-45.32,0-90.64,0-135.96c151.25,0,302.51,0,453.76,0.09     c-6.9,0.1-13.81,0.1-20.88,0.1c-0.7,0.02-1.22,0.04-1.75,0.06c-0.22-0.02-0.44-0.05-0.66-0.05c-32.95,0-65.91,0-99.03,0     c-0.63,0.01-1.08,0.01-1.53,0.02C668.92,810.22,667.93,810.22,666.85,810.22z"
   id="path29" />
			<path
   class="st20"
   d="M669.96,810.26c0.41-0.05,0.86-0.06,1.4-0.05c0.94,0.76,1.78,1.52,2.65,2.25c0.75,0.64,1.51,1.28,2.3,1.87     c1.45,1.09,2.93,2.15,4.4,3.22c0.2,0.14,0.48,0.2,0.64,0.37c1.61,1.8,3.6,3.12,5.58,4.48c0.85,0.59,1.49,1.5,2.16,2.32     c0.96,1.19,1.96,2.37,2.75,3.67c0.39,0.65,0.49,1.56,0.49,2.35c0.02,35.85,0.02,71.69,0.02,107.54c0,2.78,0,5.56,0,8.44     c-0.14,0.09-0.28,0.09-0.5,0.09c-0.08-0.44-0.11-0.88-0.11-1.32c0-36.99,0-73.97,0.01-110.96c0-2.16-0.17-4.29-1.01-6.31     c-0.9-2.13-2.55-3.67-4.26-5.11c-1.97-1.66-4.08-3.14-6.12-4.73C676.89,815.7,673.45,813,669.96,810.26z"
   id="path31" />
			<path
   class="st21"
   d="M443.35,810.29c0.19-0.07,0.4-0.08,0.73-0.03c2.81,2.13,5.49,4.22,8.19,6.28c1.1,0.84,2.24,1.61,3.36,2.42     c0,0,0.01,0.01,0.03,0.07c0.86,0.77,1.68,1.49,2.55,2.17c1.95,1.53,3.99,2.96,5.86,4.58c2.17,1.87,3.16,4.45,3.17,7.21     c0.05,37.94,0.03,75.89,0.03,113.83c-0.14,0-0.28,0-0.5,0c-0.07-37.94-0.07-75.88-0.09-113.82c0-0.62-0.35-1.23-0.54-1.85     c-0.1-0.33-0.3-0.65-0.32-0.98c-0.1-1.61-1-2.78-2.15-3.72c-2.31-1.9-4.69-3.71-7.06-5.53c-1.71-1.31-3.49-2.53-5.19-3.86     c-1.73-1.35-3.41-2.78-5.1-4.19C445.32,812.04,444.35,811.19,443.35,810.29z"
   id="path33" />
			<path
   class="st22"
   d="M469.34,830.32c0.79,0.34,1.46,1.66,1.3,2.47c-0.09,0.47-0.13,0.96-0.15,1.44     c-0.07,1.38-0.17,2.77-0.17,4.15c0,1.16,0.16,2.32,0.16,3.49c0.01,34.92,0.01,69.85,0.01,104.86c-0.2,0.09-0.4,0.09-0.7,0     c-0.09-0.56-0.1-1.04-0.1-1.51c0-19.16,0.09-38.31-0.02-57.47C469.56,868.6,470.14,849.46,469.34,830.32z"
   id="path35" />
			<path
   class="st23"
   d="M469.3,830.28c0.84,19.18,0.26,38.32,0.37,57.47c0.11,19.16,0.02,38.31,0.02,57.47     c0,0.47,0.01,0.95,0.02,1.51c-0.13,0.09-0.27,0.09-0.49,0.09c-0.06-0.35-0.04-0.69-0.04-1.04c0-37.12,0-74.24,0-111.36     c0-2.22-0.23-4.46-1.19-6.44c-0.97-1.99-2.49-3.62-4.33-4.95c-2.36-1.71-4.63-3.56-6.93-5.34c-1.76-1.36-3.52-2.72-5.27-4.09     c-1.41-1.1-2.81-2.21-4.27-3.34c0.21-0.04,0.47-0.04,0.85,0.02c1.99,1.48,3.86,2.89,5.73,4.31c0,0,0-0.01,0.01,0.06     c0.05,0.16,0.06,0.27,0.13,0.32c2.17,1.68,4.34,3.36,6.52,5.03c0.67,0.52,1.4,0.97,2.05,1.51c1.57,1.33,3.21,2.61,4.63,4.09     c1.13,1.17,1.8,2.69,2.05,4.34C469.19,830.03,469.22,830.14,469.3,830.28z"
   id="path37" />
			<path
   class="st22"
   d="M598.96,946.81c-0.07-37.18-0.07-74.37-0.08-111.55c0-1.66,0.04-3.34-0.24-4.96     c-0.21-1.21-0.81-2.36-1.95-3.14c-0.64-0.43-1.1-1.11-1.7-1.61c-0.92-0.78-1.89-1.52-2.84-2.27c-1.61-1.27-3.24-2.52-4.84-3.81     c-2.61-2.11-5.21-4.24-7.8-6.37c-0.16-0.13-0.24-0.36-0.31-0.59c0.84,0.56,1.62,1.19,2.41,1.8c2.9,2.24,5.8,4.5,8.72,6.71     c0.72,0.55,1.55,0.96,2.33,1.43c0,0,0.01,0.01,0,0.08c0.64,0.91,1.36,1.65,2.48,1.82c0,0-0.03,0.03-0.02,0.09     c0.39,0.45,0.75,0.87,1.17,1.23c2.16,1.88,3.25,4.12,3.24,7.1c-0.06,37.73-0.03,75.45-0.03,113.18c0,0.28-0.02,0.57-0.03,0.85     C599.32,946.81,599.17,946.81,598.96,946.81z"
   id="path39" />
			<path
   class="st24"
   d="M599.53,946.81c-0.06-0.28-0.04-0.57-0.04-0.85c0-37.73-0.02-75.45,0.03-113.18c0-2.98-1.08-5.22-3.24-7.1     c-0.41-0.36-0.78-0.78-1.15-1.24c2.24,1.15,3.77,3.03,4.54,5.38c0.42,1.28,0.36,2.75,0.36,4.13c0.02,23.65,0.01,47.3,0.01,70.95     c0,13.91,0,27.82-0.01,41.82C599.89,946.81,599.74,946.81,599.53,946.81z"
   id="path41" />
			<path
   class="st25"
   d="M467.32,946.81c-0.06-37.94-0.05-75.89-0.09-113.83c0-2.77-1-5.34-3.17-7.21     c-1.87-1.62-3.91-3.05-5.86-4.58c-0.86-0.68-1.68-1.4-2.54-2.17c0.8,0.43,1.68,0.83,2.42,1.41c2.02,1.57,3.98,3.24,5.98,4.84     c1.49,1.19,2.45,2.68,3.1,4.49c0.44,1.22,0.47,2.4,0.47,3.62c0.01,37.75,0.01,75.5,0.01,113.35     C467.56,946.81,467.47,946.81,467.32,946.81z"
   id="path43" />
			<path
   class="st13"
   d="M771.19,810.25c0.48-0.02,1-0.04,1.61-0.05c0.21,0.22,0.3,0.49,0.48,0.63c3.14,2.36,6.29,4.69,9.43,7.05     c1.25,0.94,2.49,1.9,3.7,2.89c2,1.64,3.98,3.31,5.95,4.99c0.46,0.39,0.86,0.87,1.36,1.31c0.07,0.46,0.07,0.91,0.07,1.44     c-1.11-1.01-2.15-2.17-3.34-3.18c-1.96-1.66-4-3.22-6.01-4.82c-1.49-1.19-2.98-2.39-4.49-3.57c-2.25-1.74-4.52-3.46-6.77-5.19     C772.52,811.26,771.88,810.76,771.19,810.25z"
   id="path45" />
			<path
   class="st22"
   d="M469.22,829.89c-0.31-1.62-0.98-3.14-2.11-4.31c-1.42-1.48-3.06-2.76-4.63-4.09     c-0.65-0.55-1.37-1-2.05-1.51c-2.18-1.67-4.35-3.35-6.52-5.03c-0.07-0.05-0.08-0.17-0.13-0.32c1.11,0.47,2.28,0.93,3.34,1.57     c0.6,0.37,0.93,1.18,1.54,1.56c1.08,0.68,1.86,1.77,2.95,2.35c2.35,1.24,3.98,3.31,5.95,4.97c1.15,0.96,1.86,2.4,1.95,4     C469.52,829.33,469.36,829.59,469.22,829.89z"
   id="path47" />
			<path
   class="st24"
   d="M592.65,822.4c-0.77-0.41-1.59-0.83-2.31-1.37c-2.92-2.21-5.82-4.47-8.72-6.71     c-0.79-0.61-1.57-1.24-2.42-1.86c-0.16-0.04-0.25-0.07-0.39-0.21c-0.8-0.74-1.55-1.38-2.3-2.02c0.26-0.02,0.52-0.03,0.85-0.03     c1.11,0.88,2.12,1.76,3.17,2.6c2.93,2.31,5.88,4.59,8.81,6.9C590.45,820.56,591.54,821.46,592.65,822.4z"
   id="path49" />
			<path
   class="st22"
   d="M453.77,814.49c-1.87-1.35-3.74-2.76-5.65-4.22c0.29-0.06,0.61-0.07,1.02-0.06     c0.26,0.25,0.4,0.54,0.63,0.72c1.14,0.87,2.31,1.7,3.43,2.59C453.47,813.72,453.59,814.11,453.77,814.49z"
   id="path51" />
			<path
   class="st22"
   d="M576.43,810.21c0.83,0.65,1.59,1.29,2.35,2c-0.8,0.13-1.46-0.13-1.96-0.81c-0.3-0.4-0.71-0.71-1.08-1.12     C575.92,810.22,576.14,810.21,576.43,810.21z"
   id="path53" />
			<path
   class="st24"
   d="M595.13,824.31c-1.1-0.12-1.83-0.85-2.46-1.75C593.49,823.07,594.3,823.66,595.13,824.31z"
   id="path55" />
			<path
   class="st25"
   d="M455.63,818.89c-1.13-0.74-2.27-1.51-3.36-2.35c-2.7-2.06-5.38-4.15-8.11-6.27     c0.34-0.06,0.71-0.07,1.17-0.07c0.29,0.31,0.45,0.68,0.72,0.9c1.86,1.47,3.76,2.88,5.61,4.36     C453.02,816.53,454.31,817.69,455.63,818.89z"
   id="path57" />
		</g>
	</g>
</g>
<g
   id="Layer_6"
   transform="matrix(1.4729944,0,0,1.4729944,-282.74381,-227.51608)">
	<rect
   x="410"
   y="430"
   class="st11"
   width="290"
   height="280"
   id="rect64" />
	<path
   class="st27"
   d="m 910.51,751.17 c 0,20.71 -8.39,39.46 -21.97,53.03 -13.57,13.58 -32.32,21.97 -53.03,21.97 h -550 c -41.42,0 -75,-33.58 -75,-75 0,-41.42 33.58,-75 75,-75 h 550 c 41.42,0 75,33.58 75,75 z"
   id="path66" />
	<path
   class="st28"
   d="m 635.02,275.08 c 0,12.72 -3.24,25.62 -10.06,37.43 L 560.51,424.14 415,676.17 H 285.51 c -41.42,0 -75,33.58 -75,75 0,41.42 33.58,75 75,75 h 4.41 c -14.31,0.96 -29.06,-2.18 -42.41,-9.89 -35.87,-20.71 -48.16,-66.58 -27.45,-102.45 l 275,-476.32 c 13.83,-23.96 38.89,-37.4 64.69,-37.5 0.25,0 0.51,-0.01 0.76,-0.01 0.25,0 0.51,0.01 0.76,0.01 12.34,0.2 24.8,3.44 36.24,10.05 24.06,13.89 37.51,39.1 37.51,65.02 z"
   id="path68" />
	<path
   class="st2"
   d="m 570.94,80 c 0.11,0 0.22,0 0.33,0.01 -0.25,0 -0.51,-0.01 -0.76,-0.01 z"
   id="path70" />
	<path
   class="st30"
   d="m 873.51,816.28 c -35.87,20.71 -81.74,8.42 -102.45,-27.45 L 560.51,424.14 624.96,312.51 c 6.82,-11.81 10.06,-24.71 10.06,-37.43 0,-25.92 -13.45,-51.13 -37.51,-65.02 -11.44,-6.61 -23.9,-9.85 -36.24,-10.05 25.8,0.1 50.86,13.54 64.69,37.5 l 275,476.32 c 20.72,35.87 8.42,81.74 -27.45,102.45 z"
   id="path72" />
</g>
</svg>
